<svg width="16" height="16" viewBox="0 0 16 16" fill="none" xmlns="http://www.w3.org/2000/svg" class="designmodo-favicon"><style>@media (prefers-color-scheme: dark) {.designmodo-favicon path {fill: #fff;} .designmodo-favicon circle{fill:#333;}}</style><circle cx="8" cy="8" r="7.85" fill="white"></circle><path d="M5.33333 8.59733C6.09328 8.59733 6.70933 7.98128 6.70933 7.22133C6.70933 6.46139 6.09328 5.84534 5.33333 5.84534C4.57339 5.84534 3.95733 6.46139 3.95733 7.22133C3.95733 7.98128 4.57339 8.59733 5.33333 8.59733Z" fill="#333333"></path><path d="M8 0C3.584 0 0 3.584 0 8C0 12.416 3.584 16 8 16C12.416 16 16 12.416 16 8C16 3.584 12.416 0 8 0ZM2.50667 7.232C2.50667 5.67467 3.776 4.40534 5.33333 4.40534C6.89067 4.40534 8.16 5.67467 8.16 7.232C8.16 8.78934 6.89067 10.0587 5.33333 10.0587C3.776 10.0587 2.50667 8.78934 2.50667 7.232ZM8.36267 12.9387C7.47733 12.9387 6.624 12.6933 5.87733 12.224L6.61333 11.04C7.136 11.3707 7.744 11.5413 8.36267 11.5413C8.98133 11.5413 9.58933 11.3707 10.1013 11.04L10.8373 12.224C10.1013 12.6933 9.23733 12.9387 8.36267 12.9387ZM9.52533 7.92534V6.528H13.8133V7.92534H9.52533Z" fill="#333333"></path></svg>