<svg xmlns="http://www.w3.org/2000/svg" viewBox="0 0 64 64"><path d="M36.21,1.47C32.61,3.89,31.83,10,31.83,10c.45-2.25-4.6-8.32-4.6-8.32C23,4.73,19.51,8,19.37,15.48S32,33.76,32,33.76c1.52-12.58,12.35-18.41,12.35-18.41C45.67,6.42,36.21,1.47,36.21,1.47Zm-1.72,21s-3.5,3-2.88,10.07c0,0-8.47-6.94-8.1-11.53,0,0,1.45-6.61,5.4-1.42,0,0,3.09-4.28,6-.68,0,0,.79,2.13-.39,3.56Z" fill="#f2498e"/><path d="M2.6,19.78C3.78,24,9.34,26.57,9.34,26.57c-2-1.13-9.34,1.8-9.34,1.8,1.61,5,3.64,9.31,10.71,11.75S32,33.76,32,33.76C20.51,28.43,18.31,16.32,18.31,16.32,10.23,12.31,2.6,19.78,2.6,19.78ZM22,27.9s1.75,4.24,8.69,5.85c0,0-9.21,5.92-13.47,4.14,0,0-5.84-3.42.32-5.57,0,0-3.11-4.27,1.2-5.9,0,0,2.27-.09,3.26,1.48Z" fill="#f2498e"/><path d="M9.62,57.4c4.33.16,8.54-4.31,8.54-4.31C16.47,54.64,17,62.53,17,62.53c5.24,0,10-.59,14.48-6.57s.53-22.2.53-22.2C23.38,43,11.19,41.39,11.19,41.39,4.88,47.83,9.62,57.4,9.62,57.4Zm13.73-16s4.58-.35,8.25-6.45c0,0,2.78,10.59-.22,14.09,0,0-5.06,4.5-5.21-2,0,0-5,1.64-5.23-3,0,0,.61-2.19,2.41-2.64Z" fill="#f2498e"/><path d="M47.57,62.35c1.49-4.07-1.46-9.46-1.46-9.46,1,2.09,8.62,4,8.62,4,1.62-5,2.52-9.66-1.77-15.8s-21-7.36-21-7.36c6.16,11.06.83,22.15.83,22.15C37,63.9,47.57,62.35,47.57,62.35Zm-11-18S37.7,39.89,33,34.51c0,0,10.93.63,13.33,4.57,0,0,2.71,6.2-3.53,4.32,0,0,0,5.28-4.44,4.07,0,0-1.89-1.27-1.77-3.12Z" fill="#f2498e"/><path d="M64,27.78c-3.41-2.67-9.45-1.53-9.45-1.53,2.29-.27,6.5-6.95,6.5-6.95-4.24-3.08-8.41-5.39-15.57-3.2S32,33.76,32,33.76c12.42-2.44,21.32,6.05,21.32,6.05C62.22,38.31,64,27.78,64,27.78ZM43.5,32.63S39.6,30.23,33,33c0,0,4-10.19,8.47-11.26,0,0,6.73-.66,3,4.7,0,0,5,1.62,2.49,5.47,0,0-1.78,1.41-3.51.72Z" fill="#f2498e"/></svg>
